<mxfile host="app.diagrams.net" agent="Mozilla/5.0 (Windows NT 10.0; Win64; x64) AppleWebKit/537.36 (KHTML, like Gecko) Chrome/139.0.0.0 Safari/537.36" version="28.1.1">
  <diagram name="Page-1" id="lehzXne86nztE7exuyYN">
    <mxGraphModel dx="1120" dy="1634" grid="0" gridSize="10" guides="1" tooltips="1" connect="1" arrows="1" fold="1" page="1" pageScale="1" pageWidth="1169" pageHeight="827" background="#ffffff" math="0" shadow="0">
      <root>
        <mxCell id="0" />
        <mxCell id="1" parent="0" />
        <mxCell id="LYWRpiEPYfekiZbP0VB6-17" value="" style="edgeStyle=orthogonalEdgeStyle;rounded=0;orthogonalLoop=1;jettySize=auto;html=1;fontFamily=Courier New;" edge="1" parent="1" source="LYWRpiEPYfekiZbP0VB6-1" target="LYWRpiEPYfekiZbP0VB6-3">
          <mxGeometry relative="1" as="geometry" />
        </mxCell>
        <mxCell id="LYWRpiEPYfekiZbP0VB6-1" value="&lt;h2&gt;&lt;font&gt;Client&lt;/font&gt;&lt;/h2&gt;" style="rounded=0;whiteSpace=wrap;html=1;fontFamily=Courier New;" vertex="1" parent="1">
          <mxGeometry x="80" y="440" width="120" height="40" as="geometry" />
        </mxCell>
        <mxCell id="LYWRpiEPYfekiZbP0VB6-18" value="" style="edgeStyle=orthogonalEdgeStyle;rounded=0;orthogonalLoop=1;jettySize=auto;html=1;fontFamily=Courier New;" edge="1" parent="1" source="LYWRpiEPYfekiZbP0VB6-3" target="LYWRpiEPYfekiZbP0VB6-5">
          <mxGeometry relative="1" as="geometry" />
        </mxCell>
        <mxCell id="LYWRpiEPYfekiZbP0VB6-41" style="edgeStyle=orthogonalEdgeStyle;rounded=0;orthogonalLoop=1;jettySize=auto;html=1;entryX=0.5;entryY=0;entryDx=0;entryDy=0;fontFamily=Courier New;" edge="1" parent="1" source="LYWRpiEPYfekiZbP0VB6-3" target="LYWRpiEPYfekiZbP0VB6-4">
          <mxGeometry relative="1" as="geometry" />
        </mxCell>
        <mxCell id="LYWRpiEPYfekiZbP0VB6-3" value="&lt;h2&gt;&lt;font&gt;UI&lt;/font&gt;&lt;/h2&gt;" style="rounded=0;whiteSpace=wrap;html=1;fontFamily=Courier New;" vertex="1" parent="1">
          <mxGeometry x="240" y="440" width="120" height="40" as="geometry" />
        </mxCell>
        <mxCell id="LYWRpiEPYfekiZbP0VB6-4" value="&lt;h2&gt;&lt;font&gt;IDP&lt;/font&gt;&lt;/h2&gt;" style="rounded=0;whiteSpace=wrap;html=1;fontFamily=Courier New;" vertex="1" parent="1">
          <mxGeometry x="240" y="680" width="120" height="40" as="geometry" />
        </mxCell>
        <mxCell id="LYWRpiEPYfekiZbP0VB6-19" value="" style="edgeStyle=orthogonalEdgeStyle;rounded=0;orthogonalLoop=1;jettySize=auto;html=1;fontFamily=Courier New;" edge="1" parent="1" source="LYWRpiEPYfekiZbP0VB6-5" target="LYWRpiEPYfekiZbP0VB6-6">
          <mxGeometry relative="1" as="geometry" />
        </mxCell>
        <mxCell id="LYWRpiEPYfekiZbP0VB6-5" value="&lt;h2&gt;F&lt;br&gt;I&lt;br&gt;R&lt;br&gt;E&lt;br&gt;W&lt;br&gt;A&lt;br&gt;L&lt;br&gt;L&lt;/h2&gt;" style="rounded=0;whiteSpace=wrap;html=1;fontFamily=Courier New;" vertex="1" parent="1">
          <mxGeometry x="400" y="280" width="40" height="360" as="geometry" />
        </mxCell>
        <mxCell id="LYWRpiEPYfekiZbP0VB6-42" style="edgeStyle=orthogonalEdgeStyle;rounded=0;orthogonalLoop=1;jettySize=auto;html=1;entryX=1;entryY=0.5;entryDx=0;entryDy=0;fontFamily=Courier New;" edge="1" parent="1" source="LYWRpiEPYfekiZbP0VB6-6" target="LYWRpiEPYfekiZbP0VB6-4">
          <mxGeometry relative="1" as="geometry">
            <Array as="points">
              <mxPoint x="500" y="700" />
            </Array>
          </mxGeometry>
        </mxCell>
        <mxCell id="LYWRpiEPYfekiZbP0VB6-6" value="&lt;h2&gt;A&lt;br&gt;P&lt;br&gt;I&lt;br&gt;&lt;br&gt;G&lt;br&gt;A&lt;br&gt;T&lt;br&gt;E&lt;br&gt;W&lt;br&gt;A&lt;br&gt;Y&lt;/h2&gt;" style="rounded=0;whiteSpace=wrap;html=1;fontFamily=Courier New;" vertex="1" parent="1">
          <mxGeometry x="480" y="280" width="40" height="360" as="geometry" />
        </mxCell>
        <mxCell id="LYWRpiEPYfekiZbP0VB6-7" value="&lt;h2&gt;A&lt;br&gt;P&lt;br&gt;I&lt;/h2&gt;" style="rounded=0;whiteSpace=wrap;html=1;fontFamily=Courier New;" vertex="1" parent="1">
          <mxGeometry x="560" y="300" width="40" height="80" as="geometry" />
        </mxCell>
        <mxCell id="LYWRpiEPYfekiZbP0VB6-25" style="edgeStyle=orthogonalEdgeStyle;rounded=0;orthogonalLoop=1;jettySize=auto;html=1;endArrow=classic;endFill=1;entryX=1;entryY=0.5;entryDx=0;entryDy=0;fontFamily=Courier New;" edge="1" parent="1" target="LYWRpiEPYfekiZbP0VB6-8">
          <mxGeometry relative="1" as="geometry">
            <mxPoint x="810" y="340" as="targetPoint" />
            <mxPoint x="840" y="339.5" as="sourcePoint" />
          </mxGeometry>
        </mxCell>
        <mxCell id="LYWRpiEPYfekiZbP0VB6-8" value="&lt;h2&gt;PRODUCT&lt;br&gt;MICROSERVICE&lt;/h2&gt;" style="rounded=0;whiteSpace=wrap;html=1;fontFamily=Courier New;" vertex="1" parent="1">
          <mxGeometry x="620" y="300" width="180" height="80" as="geometry" />
        </mxCell>
        <mxCell id="LYWRpiEPYfekiZbP0VB6-9" value="&lt;h2&gt;A&lt;br&gt;P&lt;br&gt;I&lt;/h2&gt;" style="rounded=0;whiteSpace=wrap;html=1;fontFamily=Courier New;" vertex="1" parent="1">
          <mxGeometry x="560" y="420" width="40" height="80" as="geometry" />
        </mxCell>
        <mxCell id="LYWRpiEPYfekiZbP0VB6-23" value="" style="edgeStyle=orthogonalEdgeStyle;rounded=0;orthogonalLoop=1;jettySize=auto;html=1;fontFamily=Courier New;" edge="1" parent="1" source="LYWRpiEPYfekiZbP0VB6-10" target="LYWRpiEPYfekiZbP0VB6-13">
          <mxGeometry relative="1" as="geometry" />
        </mxCell>
        <mxCell id="LYWRpiEPYfekiZbP0VB6-10" value="&lt;h2&gt;PRODUCT&lt;br&gt;MICROSERVICE&lt;/h2&gt;" style="rounded=0;whiteSpace=wrap;html=1;fontFamily=Courier New;" vertex="1" parent="1">
          <mxGeometry x="620" y="420" width="180" height="80" as="geometry" />
        </mxCell>
        <mxCell id="LYWRpiEPYfekiZbP0VB6-11" value="&lt;h2&gt;A&lt;br&gt;P&lt;br&gt;I&lt;/h2&gt;" style="rounded=0;whiteSpace=wrap;html=1;fontFamily=Courier New;" vertex="1" parent="1">
          <mxGeometry x="560" y="540" width="40" height="80" as="geometry" />
        </mxCell>
        <mxCell id="LYWRpiEPYfekiZbP0VB6-12" value="&lt;h2&gt;PRODUCT&lt;br&gt;MICROSERVICE&lt;/h2&gt;" style="rounded=0;whiteSpace=wrap;html=1;fontFamily=Courier New;" vertex="1" parent="1">
          <mxGeometry x="620" y="540" width="180" height="80" as="geometry" />
        </mxCell>
        <mxCell id="LYWRpiEPYfekiZbP0VB6-13" value="&lt;h2&gt;E&lt;br&gt;V&lt;br&gt;E&lt;br&gt;N&lt;br&gt;T&lt;br&gt;&lt;br&gt;B&lt;br&gt;U&lt;br&gt;S&lt;/h2&gt;" style="rounded=0;whiteSpace=wrap;html=1;fontFamily=Courier New;" vertex="1" parent="1">
          <mxGeometry x="840" y="280" width="40" height="360" as="geometry" />
        </mxCell>
        <mxCell id="LYWRpiEPYfekiZbP0VB6-22" value="" style="endArrow=classic;html=1;rounded=0;exitX=1;exitY=0.5;exitDx=0;exitDy=0;entryX=-0.075;entryY=0.833;entryDx=0;entryDy=0;entryPerimeter=0;fontFamily=Courier New;" edge="1" parent="1" source="LYWRpiEPYfekiZbP0VB6-12" target="LYWRpiEPYfekiZbP0VB6-13">
          <mxGeometry width="50" height="50" relative="1" as="geometry">
            <mxPoint x="710" y="300" as="sourcePoint" />
            <mxPoint x="960" y="580" as="targetPoint" />
          </mxGeometry>
        </mxCell>
        <mxCell id="LYWRpiEPYfekiZbP0VB6-35" value="" style="endArrow=classic;html=1;rounded=0;exitX=0;exitY=0.75;exitDx=0;exitDy=0;fontFamily=Courier New;" edge="1" parent="1">
          <mxGeometry width="50" height="50" relative="1" as="geometry">
            <mxPoint x="560" y="471" as="sourcePoint" />
            <mxPoint x="520" y="471" as="targetPoint" />
          </mxGeometry>
        </mxCell>
        <mxCell id="LYWRpiEPYfekiZbP0VB6-36" value="" style="endArrow=classic;html=1;rounded=0;exitX=1;exitY=0.5;exitDx=0;exitDy=0;entryX=0;entryY=0.5;entryDx=0;entryDy=0;fontFamily=Courier New;" edge="1" parent="1">
          <mxGeometry width="50" height="50" relative="1" as="geometry">
            <mxPoint x="520" y="451" as="sourcePoint" />
            <mxPoint x="560" y="451" as="targetPoint" />
          </mxGeometry>
        </mxCell>
        <mxCell id="LYWRpiEPYfekiZbP0VB6-37" value="" style="endArrow=classic;html=1;rounded=0;exitX=0;exitY=0.75;exitDx=0;exitDy=0;fontFamily=Courier New;" edge="1" parent="1">
          <mxGeometry width="50" height="50" relative="1" as="geometry">
            <mxPoint x="560" y="589.71" as="sourcePoint" />
            <mxPoint x="520" y="589.71" as="targetPoint" />
          </mxGeometry>
        </mxCell>
        <mxCell id="LYWRpiEPYfekiZbP0VB6-38" value="" style="endArrow=classic;html=1;rounded=0;exitX=1;exitY=0.5;exitDx=0;exitDy=0;entryX=0;entryY=0.5;entryDx=0;entryDy=0;fontFamily=Courier New;" edge="1" parent="1">
          <mxGeometry width="50" height="50" relative="1" as="geometry">
            <mxPoint x="520" y="569.71" as="sourcePoint" />
            <mxPoint x="560" y="569.71" as="targetPoint" />
          </mxGeometry>
        </mxCell>
        <mxCell id="LYWRpiEPYfekiZbP0VB6-39" value="" style="endArrow=classic;html=1;rounded=0;exitX=0;exitY=0.75;exitDx=0;exitDy=0;fontFamily=Courier New;" edge="1" parent="1">
          <mxGeometry width="50" height="50" relative="1" as="geometry">
            <mxPoint x="560" y="349.71000000000004" as="sourcePoint" />
            <mxPoint x="520" y="349.71000000000004" as="targetPoint" />
          </mxGeometry>
        </mxCell>
        <mxCell id="LYWRpiEPYfekiZbP0VB6-40" value="" style="endArrow=classic;html=1;rounded=0;exitX=1;exitY=0.5;exitDx=0;exitDy=0;entryX=0;entryY=0.5;entryDx=0;entryDy=0;fontFamily=Courier New;" edge="1" parent="1">
          <mxGeometry width="50" height="50" relative="1" as="geometry">
            <mxPoint x="520" y="329.71000000000004" as="sourcePoint" />
            <mxPoint x="560" y="329.71000000000004" as="targetPoint" />
          </mxGeometry>
        </mxCell>
      </root>
    </mxGraphModel>
  </diagram>
</mxfile>
